<?xml version="1.0" encoding="UTF-8" standalone="no"?>
<svg
   xmlns:dc="http://purl.org/dc/elements/1.1/"
   xmlns:cc="http://creativecommons.org/ns#"
   xmlns:rdf="http://www.w3.org/1999/02/22-rdf-syntax-ns#"
   xmlns:svg="http://www.w3.org/2000/svg"
   xmlns="http://www.w3.org/2000/svg"
   xmlns:sodipodi="http://sodipodi.sourceforge.net/DTD/sodipodi-0.dtd"
   xmlns:inkscape="http://www.inkscape.org/namespaces/inkscape"
   width="82"
   height="120"
   viewBox="-41 -50 82 120"
   version="1.1"
   id="svg2"
   inkscape:version="0.91 r13725"
   sodipodi:docname="just_the_head_logo_v3.svg">
  <metadata
     id="metadata12">
    <rdf:RDF>
      <cc:Work
         rdf:about="">
        <dc:format>image/svg+xml</dc:format>
        <dc:type
           rdf:resource="http://purl.org/dc/dcmitype/StillImage" />
        <dc:title>OpenSCAD Model</dc:title>
      </cc:Work>
    </rdf:RDF>
  </metadata>
  <defs
     id="defs10" />
  <sodipodi:namedview
     pagecolor="#ffffff"
     bordercolor="#666666"
     borderopacity="1"
     objecttolerance="10"
     gridtolerance="10"
     guidetolerance="10"
     inkscape:pageopacity="0"
     inkscape:pageshadow="2"
     inkscape:window-width="904"
     inkscape:window-height="757"
     id="namedview8"
     showgrid="false"
     inkscape:zoom="2.36"
     inkscape:cx="45.822642"
     inkscape:cy="22.553469"
     inkscape:window-x="2156"
     inkscape:window-y="317"
     inkscape:window-maximized="0"
     inkscape:current-layer="svg2" />
  <title
     id="title4">OpenSCAD Model</title>
  <path
     d="m 1.26616,49.806439 1.26517,-0.072 1.26278,-0.12 1.25887,-0.1678 1.2541,-0.2155 1.24851,-0.2631 1.24116,-0.3104 1.23295,-0.3574 1.2227,-0.4038 1.2129,-0.4505 1.2002,-0.4962 1.1879,-0.542 1.173,-0.5866 1.1579,-0.6313 1.1413,-0.675 1.1239,-0.7186 1.1048,-0.7608 1.0849,-0.8028 1.0642,-0.844 1.042,-0.8842 1.0187,-0.9235 0.9949,-0.9624 0.9699,-1.0002 0.9432,-1.0362 0.9169,-1.0728 0.8884,-1.107 0.8593,-1.1402 0.8301,-1.1735 0.799,-1.2041 0.7678,-1.2347 0.7352,-1.2631 0.7023,-1.291 0.6688,-1.3176 0.6342,-1.3426 0.5992,-1.3664 0.5633,-1.3881 0.527,-1.4094 0.4904,-1.4295 0.4531,-1.4478 0.415,-1.4635 0.3769,-1.4794 0.3383,-1.493 0.2994,-1.5057 0.26,-1.5159999 0.2206,-1.52576 0.1806,-1.53247 0.1408,-1.53993 0.1006,-1.54366 0.0282,-0.70042 0.0057,-0.07353 0.0076,-0.28679 0.019,-0.4867 0.0065,-0.49929 0.0476,-1.82554998 -0.0807,-3.09839002 -0.2416,-3.08586 -0.4015,-3.06096 -0.5599,-3.0241901 -0.7158,-2.9748 -0.8688,-2.9139 -1.0182,-2.841 -1.1636,-2.7573 -1.3038,-2.6619 -1.439,-2.5566 -1.5682,-2.4409 -1.6907,-2.3154 -1.8066,-2.1813 -1.9148,-2.0384 -2.0154,-1.8875 -2.1078,-1.7296 -2.1918,-1.5651 -2.267,-1.3946 -2.333,-1.219 -2.3899,-1.0389 -2.438,-0.8552 -2.4757,-0.6681 -2.50499,-0.4791 -2.52357,-0.288 -2.53354,-0.0961 -2.53354,0.0961 -2.52357,0.288 -2.50499,0.4791 -2.4757,0.6681 -2.438,0.8552 -2.3899,1.0389 -2.333,1.219 -2.267,1.3946 -2.1918,1.5651 -2.1078,1.7296 -2.0154,1.8875 -1.9148,2.0384 -1.8066,2.1813 -1.6907,2.3154 -1.5682,2.4409 -1.439,2.5566 -1.3038,2.6619 -1.1636,2.7573 -1.0182,2.841 -0.8688,2.9139 -0.7158,2.9748 -0.5599,3.0241901 -0.4015,3.06096 -0.2416,3.08586 -0.0807,3.09839002 0.0478,1.83854998 0.0063,0.48629 0.0195,0.49974 0.0071,0.27375 0.008,0.11258 0.0259,0.66137 0.1006,1.54366 0.1408,1.53993 0.1806,1.53247 0.2206,1.52576 0.26,1.5159999 0.2994,1.5057 0.3383,1.493 0.3769,1.4794 0.415,1.4635 0.4531,1.4478 0.4904,1.4295 0.527,1.4094 0.5633,1.3881 0.5992,1.3664 0.6342,1.3426 0.6688,1.3176 0.7023,1.291 0.7352,1.2631 0.7678,1.2347 0.799,1.2041 0.8301,1.1735 0.8593,1.1402 0.8884,1.107 0.9169,1.0728 0.9432,1.0362 0.9699,1.0002 0.9949,0.9624 1.0187,0.9235 1.042,0.8842 1.0642,0.844 1.0849,0.8028 1.1048,0.7608 1.1239,0.7186 1.1413,0.675 1.1579,0.6313 1.173,0.5866 1.1879,0.542 1.2002,0.4962 1.2129,0.4505 1.2227,0.4038 1.23295,0.3574 1.24116,0.3104 1.24851,0.2631 1.2541,0.2155 1.25887,0.1678 1.26278,0.12 1.26517,0.072 1.26616,0.024 z m -1.387788,-37.5651 -0.875854,-0.1074 -0.874448,-0.1128 -0.22884,-0.0318 -0.22417,-0.0582 -0.61987,-0.2405 -0.82974,-0.3275 -0.41277,-0.1657 -0.20482,-0.1115 -1.13037,-0.7993 -0.52385,-0.3755799 -0.16815,-0.15221 -0.82174,-0.93414 -0.53563,-0.61455 -0.12593,-0.18164 -0.54427,-1.00725 -0.44383,-0.82684 -0.08176,-0.20288 -0.29716,-1.05951 -0.26951,-0.96957 -0.03503,-0.21325 -0.04536,-0.83024 0.01234,-0.22034 0.27333,-1.62605 0.06329,-0.21933198 0.19722,-0.47261 0.58182,-1.42189002 0.11281,-0.203948 1.17854,-1.64386 0.1646,-0.17888 0.07265,-0.06183 1.42726,-1.25403 0.20454,-0.139 1.21083,-0.61956 0.53598,-0.28723 0.23282,-0.08948 1.92038,-0.47378 0.239534,-0.02912 1.973572,0 0.239534,0.02912 1.92038,0.47378 0.23282,0.08948 0.53598,0.28723 1.21083,0.61956 0.20454,0.139 1.42726,1.25403 0.07265,0.06183 0.1646,0.17888 1.17854,1.64386 0.11281,0.203948 0.58182,1.42189002 0.19722,0.47261 0.06329,0.21933198 0.27333,1.62605 0.01234,0.22034 -0.04536,0.83024 -0.03513,0.21361 -0.41668,1.49687 -0.15023,0.53304 -0.08213,0.20303 -0.98679,1.83164 -0.12653,0.18275 -0.53865,0.618 -0.81872,0.93069 -0.16815,0.15221 -0.52785,0.3784799 -0.75139,0.5331 -0.37762,0.2652 -0.20218,0.1096 -0.41819,0.1679 -0.82972,0.3274 -0.61748,0.2396 -0.22751,0.0587 -0.23205,0.0314 -0.871205,0.1123 -0.869537,0.1066 z m 0.010803,25.6803 -1.960215,-0.2186 -0.21633,-0.0489 -1.85457,-0.642 -0.19206,-0.0904 -0.15251,-0.0927 -1.50641,-0.9396 -0.17123,-0.1348 -0.34891,-0.3425 -1.01196,-1.0116 -0.14447,-0.1828 -0.63561,-1.032 -0.35376,-0.5808 -0.09785,-0.2137 -0.56604,-1.7582 -0.04615,-0.2437 -0.03947,-0.628 0.01549,-0.2488 0.26744,-1.4123 0.07705,-0.2383 0.7817,-1.6678 0.13372,-0.2116 0.28534,-0.3463 0.49219,-0.6104 0.39226,-0.4897 0.17259,-0.1689 1.51184,-1.1575 0.19521,-0.1169 1.11485,-0.5051 0.63927,-0.2978 0.21147,-0.0711 1.4088,-0.3037 0.50255,-0.1133 0.224712,-0.0244 0.981888,0.0048 0.981888,-0.0048 0.224712,0.0244 0.50255,0.1133 1.4088,0.3037 0.21147,0.0711 0.63997,0.2981 1.11748,0.5072 0.19459,0.1166 1.50911,1.1554 0.17261,0.1689 0.3902,0.4872 0.49425,0.6129 0.28534,0.3463 0.13372,0.2116 0.7817,1.6678 0.07705,0.2383 0.26744,1.4123 0.01549,0.2488 -0.03947,0.628 -0.04615,0.2437 -0.56604,1.7582 -0.09785,0.2137 -0.35634,0.585 -0.63303,1.0278 -0.14447,0.1828 -1.01847,1.018 -0.3424,0.3361 -0.17123,0.1348 -1.51643,0.9458 -0.14249,0.0865 -0.19206,0.0904 -1.85457,0.642 -0.21633,0.0489 -1.960215,0.2186 z"
     id="path6"
     style="fill:#d3d3d3;fill-opacity:0;stroke:#000000;stroke-width:1.5;stroke-miterlimit:4;stroke-dasharray:none"
     inkscape:connector-curvature="0"
     inkscape:export-xdpi="180"
     inkscape:export-ydpi="180" />
  <flowRoot
     xml:space="preserve"
     id="flowRoot4208"
     style="font-style:normal;font-variant:normal;font-weight:normal;font-stretch:normal;font-size:10px;line-height:110.00000238%;font-family:Arial;-inkscape-font-specification:'Arial, Normal';text-align:center;letter-spacing:0px;word-spacing:0px;writing-mode:lr-tb;text-anchor:middle;fill:#000000;fill-opacity:1;stroke:none;stroke-width:1px;stroke-linecap:butt;stroke-linejoin:miter;stroke-opacity:1"
     transform="translate(-50.511963,-42)"
     inkscape:export-xdpi="180"
     inkscape:export-ydpi="180"><flowRegion
       id="flowRegion4210"><rect
         id="rect4212"
         width="102.75425"
         height="17.796612"
         x="0.10593221"
         y="98.389832" /></flowRegion><flowPara
       id="flowPara4214"
       style="font-style:normal;font-variant:normal;font-weight:normal;font-stretch:normal;font-size:12.5px;line-height:110.00000238%;font-family:Astro;-inkscape-font-specification:'Astro, Normal';text-align:center;writing-mode:lr-tb;text-anchor:middle">MARCEL</flowPara></flowRoot></svg>
