<?xml version="1.0" standalone="no"?>
<!DOCTYPE svg PUBLIC "-//W3C//DTD SVG 1.1//EN" "http://www.w3.org/Graphics/SVG/1.1/DTD/svg11.dtd">
<svg width="82" height="100" viewBox="-41 -50 82 100" xmlns="http://www.w3.org/2000/svg" version="1.1">
<title>OpenSCAD Model</title>
<path d="
M 1.26616,49.8838 L 2.53133,49.8118 L 3.79411,49.6918 L 5.05298,49.524 L 6.30708,49.3085 L 7.55559,49.0454
 L 8.79675,48.735 L 10.0297,48.3776 L 11.2524,47.9738 L 12.4653,47.5233 L 13.6655,47.0271 L 14.8534,46.4851
 L 16.0264,45.8985 L 17.1843,45.2672 L 18.3256,44.5922 L 19.4495,43.8736 L 20.5543,43.1128 L 21.6392,42.31
 L 22.7034,41.466 L 23.7454,40.5818 L 24.7641,39.6583 L 25.759,38.6959 L 26.7289,37.6957 L 27.6721,36.6595
 L 28.589,35.5867 L 29.4774,34.4797 L 30.3367,33.3395 L 31.1668,32.166 L 31.9658,30.9619 L 32.7336,29.7272
 L 33.4688,28.4641 L 34.1711,27.1731 L 34.8399,25.8555 L 35.4741,24.5129 L 36.0733,23.1465 L 36.6366,21.7584
 L 37.1636,20.349 L 37.654,18.9195 L 38.1071,17.4717 L 38.5221,16.0082 L 38.899,14.5288 L 39.2373,13.0358
 L 39.5367,11.5301 L 39.7967,10.0141 L 40.0173,8.48834 L 40.1979,6.95587 L 40.3387,5.41594 L 40.4393,3.87228
 L 40.4675,3.17186 L 40.4732,3.09833 L 40.4808,2.81154 L 40.4998,2.32484 L 40.5063,1.82555 L 40.5539,-0
 L 40.4732,-3.09839 L 40.2316,-6.18425 L 39.8301,-9.24521 L 39.2702,-12.2694 L 38.5544,-15.2442 L 37.6856,-18.1581
 L 36.6674,-20.9991 L 35.5038,-23.7564 L 34.2,-26.4183 L 32.761,-28.9749 L 31.1928,-31.4158 L 29.5021,-33.7312
 L 27.6955,-35.9125 L 25.7807,-37.9509 L 23.7653,-39.8384 L 21.6575,-41.568 L 19.4657,-43.1331 L 17.1987,-44.5277
 L 14.8657,-45.7467 L 12.4758,-46.7856 L 10.0378,-47.6408 L 7.5621,-48.3089 L 5.05711,-48.788 L 2.53354,-49.076
 L 0,-49.1721 L -2.53354,-49.076 L -5.05711,-48.788 L -7.5621,-48.3089 L -10.0378,-47.6408 L -12.4758,-46.7856
 L -14.8657,-45.7467 L -17.1987,-44.5277 L -19.4657,-43.1331 L -21.6575,-41.568 L -23.7653,-39.8384 L -25.7807,-37.9509
 L -27.6955,-35.9125 L -29.5021,-33.7312 L -31.1928,-31.4158 L -32.761,-28.9749 L -34.2,-26.4183 L -35.5038,-23.7564
 L -36.6674,-20.9991 L -37.6856,-18.1581 L -38.5544,-15.2442 L -39.2702,-12.2694 L -39.8301,-9.24521 L -40.2316,-6.18425
 L -40.4732,-3.09839 L -40.5539,-0 L -40.5061,1.83855 L -40.4998,2.32484 L -40.4803,2.82458 L -40.4732,3.09833
 L -40.4652,3.21091 L -40.4393,3.87228 L -40.3387,5.41594 L -40.1979,6.95587 L -40.0173,8.48834 L -39.7967,10.0141
 L -39.5367,11.5301 L -39.2373,13.0358 L -38.899,14.5288 L -38.5221,16.0082 L -38.1071,17.4717 L -37.654,18.9195
 L -37.1636,20.349 L -36.6366,21.7584 L -36.0733,23.1465 L -35.4741,24.5129 L -34.8399,25.8555 L -34.1711,27.1731
 L -33.4688,28.4641 L -32.7336,29.7272 L -31.9658,30.9619 L -31.1668,32.166 L -30.3367,33.3395 L -29.4774,34.4797
 L -28.589,35.5867 L -27.6721,36.6595 L -26.7289,37.6957 L -25.759,38.6959 L -24.7641,39.6583 L -23.7454,40.5818
 L -22.7034,41.466 L -21.6392,42.31 L -20.5543,43.1128 L -19.4495,43.8736 L -18.3256,44.5922 L -17.1843,45.2672
 L -16.0264,45.8985 L -14.8534,46.4851 L -13.6655,47.0271 L -12.4653,47.5233 L -11.2524,47.9738 L -10.0297,48.3776
 L -8.79675,48.735 L -7.55559,49.0454 L -6.30708,49.3085 L -5.05298,49.524 L -3.79411,49.6918 L -2.53133,49.8118
 L -1.26616,49.8838 L 0,49.9078 z
M -0.121628,12.3187 L -0.997482,12.2113 L -1.87193,12.0985 L -2.10077,12.0667 L -2.32494,12.0085 L -2.94481,11.768
 L -3.77455,11.4405 L -4.18732,11.2748 L -4.39214,11.1633 L -5.52251,10.364 L -6.04636,9.98842 L -6.21451,9.83621
 L -7.03625,8.90207 L -7.57188,8.28752 L -7.69781,8.10588 L -8.24208,7.09863 L -8.68591,6.27179 L -8.76767,6.06891
 L -9.06483,5.0094 L -9.33434,4.03983 L -9.36937,3.82658 L -9.41473,2.99634 L -9.40239,2.776 L -9.12906,1.14995
 L -9.06577,0.930618 L -8.86855,0.458008 L -8.28673,-0.963882 L -8.17392,-1.16783 L -6.99538,-2.81169 L -6.83078,-2.99057
 L -6.75813,-3.0524 L -5.33087,-4.30643 L -5.12633,-4.44543 L -3.9155,-5.06499 L -3.37952,-5.35222 L -3.1467,-5.4417
 L -1.22632,-5.91548 L -0.986786,-5.9446 L 0.986786,-5.9446 L 1.22632,-5.91548 L 3.1467,-5.4417 L 3.37952,-5.35222
 L 3.9155,-5.06499 L 5.12633,-4.44543 L 5.33087,-4.30643 L 6.75813,-3.0524 L 6.83078,-2.99057 L 6.99538,-2.81169
 L 8.17392,-1.16783 L 8.28673,-0.963882 L 8.86855,0.458008 L 9.06577,0.930618 L 9.12906,1.14995 L 9.40239,2.776
 L 9.41473,2.99634 L 9.36937,3.82658 L 9.33424,4.04019 L 8.91756,5.53706 L 8.76733,6.0701 L 8.6852,6.27313
 L 7.69841,8.10477 L 7.57188,8.28752 L 7.03323,8.90552 L 6.21451,9.83621 L 6.04636,9.98842 L 5.51851,10.3669
 L 4.76712,10.9 L 4.3895,11.1652 L 4.18732,11.2748 L 3.76913,11.4427 L 2.93941,11.7701 L 2.32193,12.0097
 L 2.09442,12.0684 L 1.86237,12.0998 L 0.991165,12.2121 L 0.121628,12.3187 z
M -0.110825,37.999 L -2.07104,37.7804 L -2.28737,37.7315 L -4.14194,37.0895 L -4.334,36.9991 L -4.48651,36.9064
 L -5.99292,35.9668 L -6.16415,35.832 L -6.51306,35.4895 L -7.52502,34.4779 L -7.66949,34.2951 L -8.3051,33.2631
 L -8.65886,32.6823 L -8.75671,32.4686 L -9.32275,30.7104 L -9.3689,30.4667 L -9.40837,29.8387 L -9.39288,29.5899
 L -9.12544,28.1776 L -9.04839,27.9393 L -8.26669,26.2715 L -8.13297,26.0599 L -7.84763,25.7136 L -7.35544,25.1032
 L -6.96318,24.6135 L -6.79059,24.4446 L -5.27875,23.2871 L -5.08354,23.1702 L -3.96869,22.6651 L -3.32942,22.3673
 L -3.11795,22.2962 L -1.70915,21.9925 L -1.2066,21.8792 L -0.981888,21.8548 L 0,21.8596 L 0.981888,21.8548
 L 1.2066,21.8792 L 1.70915,21.9925 L 3.11795,22.2962 L 3.32942,22.3673 L 3.96939,22.6654 L 5.08687,23.1726
 L 5.28146,23.2892 L 6.79057,24.4446 L 6.96318,24.6135 L 7.35338,25.1007 L 7.84763,25.7136 L 8.13297,26.0599
 L 8.26669,26.2715 L 9.04839,27.9393 L 9.12544,28.1776 L 9.39288,29.5899 L 9.40837,29.8387 L 9.3689,30.4667
 L 9.32275,30.7104 L 8.75671,32.4686 L 8.65886,32.6823 L 8.30252,33.2673 L 7.66949,34.2951 L 7.52502,34.4779
 L 6.50655,35.4959 L 6.16415,35.832 L 5.99292,35.9668 L 4.47649,36.9126 L 4.334,36.9991 L 4.14194,37.0895
 L 2.28737,37.7315 L 2.07104,37.7804 L 0.110825,37.999 z
" stroke="black" fill="lightgray" stroke-width="0.5"/></svg>
